<?xml version="1.0" encoding="utf-8"?>
<!-- Generator: Adobe Illustrator 15.0.0, SVG Export Plug-In . SVG Version: 6.00 Build 0)  -->
<!DOCTYPE svg PUBLIC "-//W3C//DTD SVG 1.1//EN" "http://www.w3.org/Graphics/SVG/1.1/DTD/svg11.dtd">
<svg version="1.1" id="Layer_1" xmlns="http://www.w3.org/2000/svg" xmlns:xlink="http://www.w3.org/1999/xlink" x="0px" y="0px"
	 width="1700.5px" height="525px" viewBox="0 0 1700.5 525" enable-background="new 0 0 1700.5 525" xml:space="preserve">
<g transform="translate(-159 -5841)">
	<path fill="#FF543F" d="M137.59,6397.174c62.21-79.011,157.84-232.311,251.61-305.49
		c347.561-270.678,504.052,31.946,1066.282-204.393c356.452-149.838,405.561,239.187,393.783,508.734L137.59,6397.174z"/>
	<path opacity="0.05" fill="#FF543F" enable-background="new    " d="M450.483,6396.727
		c-41.4-185.711,96.459-247.977,228.027-344.267c255.548-186.624,370.256-9.855,783.644-172.8
		c413.387-162.944,264.569,517.071,264.569,517.071L450.483,6396.727z"/>
	<path opacity="0.25" fill="#FF6947" d="M1809.316,6396.731c41.4-185.71-96.459-247.977-228.026-344.266
		c-255.548-186.623-370.257-9.856-783.644-172.804c-413.386-162.948-264.569,517.07-264.569,517.07H1809.316z"/>
</g>
</svg>
