<?xml version="1.0" encoding="utf-8"?>
<!-- Generator: Adobe Illustrator 15.0.0, SVG Export Plug-In . SVG Version: 6.00 Build 0)  -->
<!DOCTYPE svg PUBLIC "-//W3C//DTD SVG 1.1//EN" "http://www.w3.org/Graphics/SVG/1.1/DTD/svg11.dtd">
<svg version="1.1" id="Layer_1" xmlns="http://www.w3.org/2000/svg" xmlns:xlink="http://www.w3.org/1999/xlink" x="0px" y="0px"
	 width="494.836px" height="638.601px" viewBox="0 0 494.836 638.601" enable-background="new 0 0 494.836 638.601"
	 xml:space="preserve">
<g>
	<path fill="#FF543F" d="M319.3,0c176.345,0-67.065,208.923,88.593,319.3c155.659,110.377,87.752,319.299-88.593,319.299
		S0,495.644,0,319.3C0,142.955,142.956,0,319.3,0z"/>
	<g>
		<defs>
			<path id="SVGID_1_" d="M319.3,0c176.345,0-67.065,208.923,88.593,319.3c155.659,110.377,87.752,319.299-88.593,319.299
				S0,495.644,0,319.3C0,142.955,142.956,0,319.3,0z"/>
		</defs>
		<clipPath id="SVGID_2_">
			<use xlink:href="#SVGID_1_"  overflow="visible"/>
		</clipPath>
		<g transform="translate(-297.858 -1341)" clip-path="url(#SVGID_2_)">
			
				<linearGradient id="SVGID_3_" gradientUnits="userSpaceOnUse" x1="141.9767" y1="1976.7788" x2="141.9767" y2="1975.7788" gradientTransform="matrix(-494.8363 0 0 638.6 70800.5391 -1260391.25)">
				<stop  offset="0" style="stop-color:#FF9573"/>
				<stop  offset="1" style="stop-color:#FF3A17"/>
			</linearGradient>
			<path opacity="0.55" fill="url(#SVGID_3_)" enable-background="new    " d="M473.394,1979.601
				c-176.345,0,67.066-208.924-88.593-319.3c-155.659-110.377-87.752-319.3,88.593-319.3c176.345,0,319.3,142.955,319.3,319.3
				C792.694,1836.646,649.738,1979.601,473.394,1979.601z"/>
		</g>
	</g>
</g>
</svg>
