<?xml version="1.0" encoding="utf-8"?>
<!-- Generator: Adobe Illustrator 15.0.0, SVG Export Plug-In . SVG Version: 6.00 Build 0)  -->
<!DOCTYPE svg PUBLIC "-//W3C//DTD SVG 1.1//EN" "http://www.w3.org/Graphics/SVG/1.1/DTD/svg11.dtd">
<svg version="1.1" id="Layer_1" xmlns="http://www.w3.org/2000/svg" xmlns:xlink="http://www.w3.org/1999/xlink" x="0px" y="0px"
	 width="171.121px" height="57.25px" viewBox="0 -29.25 171.121 57.25" enable-background="new 0 -29.25 171.121 57.25"
	 xml:space="preserve">
<g id="Group_23" transform="translate(-1814.122 -393.809)">
	<path id="Path_99" fill="#FFFFFF" d="M1976.439,406.48h-3.397v1.189h3.107c0.325,0,0.652,0.018,0.942,0.219
		c0.113,0.271,0.326,0.596,0.253,0.922v0.516c0.073,0.304-0.089,0.626-0.253,0.952c-0.279,0.163-0.611,0.2-0.939,0.163h-2.947
		c-0.34,0.037-0.68,0-0.928-0.163c-0.221-0.326-0.291-0.646-0.291-0.952v-0.064l0.865-0.16v0.688h3.671v-1.305h-3.113
		c-0.337,0-0.676-0.122-0.884-0.326c-0.248-0.163-0.326-0.489-0.326-0.813v-0.491c0-0.326,0.078-0.652,0.326-0.822
		c0.205-0.261,0.547-0.317,0.884-0.317h2.704c0.326,0,0.652,0.06,0.923,0.297c0.169,0.19,0.269,0.516,0.169,0.823v0.019
		l-0.766,0.188V406.48z M1967.633,406.48h-3.475v3.309h3.475v-1.141l0.887,0.162v0.514c0.092,0.306-0.121,0.628-0.234,0.954
		c-0.315,0.163-0.648,0.198-0.979,0.163h-2.822c-0.326,0.035-0.652,0-0.979-0.163c-0.113-0.326-0.259-0.646-0.189-0.956v-2.468
		c-0.066-0.326,0.076-0.652,0.189-0.836c0.326-0.252,0.652-0.303,0.979-0.303h2.822c0.33,0,0.666,0.057,0.979,0.312
		c0.113,0.176,0.326,0.502,0.234,0.828v0.491l-0.887,0.161V406.48z M1959.478,410.442h-0.88v-4.727h0.88V410.442z M1953.947,406.48
		h-3.814v3.309h3.814v-1.305h-1.971v-0.652h2.936v1.498c0,0.302-0.07,0.622-0.291,0.948c-0.248,0.163-0.588,0.202-0.928,0.163
		h-3.303c-0.327,0.033-0.661,0-0.91-0.163c-0.205-0.326-0.326-0.645-0.326-0.95v-2.474c0-0.326,0.118-0.652,0.326-0.825
		c0.245-0.255,0.577-0.314,0.904-0.314h3.304c0.332,0,0.668,0.055,0.906,0.306c0.221,0.181,0.317,0.507,0.317,0.831v0.136
		l-0.976,0.144L1953.947,406.48z M1939.602,406.854c-0.026-0.326,0.099-0.652,0.3-0.828c0.268-0.257,0.61-0.312,0.939-0.312h3.42
		c0.326,0,0.652,0.057,0.979,0.312c0.213,0.176,0.313,0.502,0.246,0.828v2.472c0.063,0.304-0.033,0.626-0.246,0.952
		c-0.326,0.163-0.652,0.2-0.979,0.163h-3.42c-0.332,0.039-0.678,0-0.939-0.163c-0.201-0.326-0.326-0.646-0.302-0.952
		L1939.602,406.854z M1940.516,409.789h4.072v-3.309h-4.072V409.789z M1931.895,410.442v-4.727h0.98v4.075h3.734v0.652H1931.895z
		 M1921.291,406.48h-3.817v3.309h3.817v-1.305h-1.957v-0.652h2.914v1.498c0.021,0.302-0.138,0.622-0.305,0.948
		c-0.273,0.163-0.639,0.202-0.979,0.163h-3.262c-0.326,0.039-0.652,0-0.917-0.163c-0.226-0.326-0.235-0.645-0.226-0.95v-2.474
		c-0.013-0.326,0-0.652,0.226-0.825c0.265-0.26,0.591-0.314,0.917-0.314h3.262c0.326,0,0.66,0.057,0.979,0.306
		c0.162,0.181,0.326,0.507,0.269,0.831v0.136l-0.921,0.144V406.48z M1907.922,406.693c0,0.161,0,0.326,0,0.462
		c0,0.081,0,0.218,0,0.351v2.935h-0.82v-4.727h0.682l3.557,3.096c0.163,0.164,0.219,0.176,0.328,0.326
		c0.112,0.143,0.168,0.18,0.326,0.326c-0.067-0.162-0.109-0.293-0.156-0.428c-0.002-0.076-0.002-0.225-0.002-0.387v-2.934h0.832
		v4.727h-0.573l-3.671-3.096c-0.082-0.156-0.176-0.19-0.326-0.326C1908.077,406.887,1907.932,406.854,1907.922,406.693
		L1907.922,406.693z M1903.188,410.442h-0.92v-4.724h0.92V410.442z M1896.939,406.485v3.957h-0.927v-3.957h-2.283v-0.771h5.537
		v0.771H1896.939z M1887.479,408.651h2.57l-1.266-2.233L1887.479,408.651z M1885.575,410.442l2.773-4.727h0.814l2.936,4.727h-1.001
		l-0.63-1.09h-3.406l-0.568,1.09H1885.575z M1877.421,410.442v-4.727h3.914c0.273,0,0.517,0.116,0.795,0.287
		c0.177,0.2,0.194,0.365,0.184,0.691v0.981c0.02,0.321-0.001,0.519-0.184,0.771c-0.283,0.102-0.521,0.203-0.795,0.203h-0.652
		l2.122,1.793h-1.196l-1.905-1.793h-1.356v1.793H1877.421z M1880.928,406.412h-2.581v1.583h2.581c0.135,0,0.259,0,0.407-0.163
		c0.086-0.048,0.15-0.166,0.11-0.326v-0.612c0.036-0.06-0.036-0.202-0.11-0.367c-0.154-0.016-0.272-0.138-0.416-0.119
		L1880.928,406.412z M1869.105,410.442v-4.727h4.893v0.771h-3.988v1.185h2.357v0.661h-2.357v1.459h3.988v0.652H1869.105z
		 M1860.303,406.693c0.02,0.161,0.047,0.326,0.067,0.462c0,0.081,0,0.218,0,0.351v2.935h-0.835v-4.727h0.698l3.549,3.096
		c0.104,0.164,0.213,0.174,0.288,0.326c0.13,0.145,0.206,0.182,0.305,0.326c-0.021-0.162-0.053-0.295-0.071-0.428
		c-0.018-0.077-0.018-0.225-0.018-0.387v-2.934h0.851v4.727h-0.617l-3.645-3.096c-0.114-0.156-0.245-0.19-0.326-0.326
		c-0.089-0.133-0.167-0.165-0.25-0.326H1860.303z M1851.193,410.442v-4.727h4.873v0.771h-3.976v1.185h2.411v0.661h-2.411v1.459
		h4.031v0.652H1851.193z M1846.545,406.485h-3.833v3.304h3.833v-1.305h-1.969v-0.652h2.866v1.5c0.065,0.305-0.031,0.619-0.245,0.945
		c-0.25,0.163-0.596,0.208-0.938,0.163h-3.274c-0.354,0.043-0.681,0-0.925-0.163c-0.215-0.326-0.326-0.641-0.249-0.946v-2.478
		c-0.077-0.326,0.031-0.652,0.249-0.822c0.245-0.257,0.571-0.317,0.897-0.317h3.295c0.334,0,0.671,0.06,0.945,0.312
		c0.163,0.176,0.29,0.502,0.245,0.828v0.139l-0.897,0.142V406.485z M1833.579,410.442v-4.727h4.875v0.771h-3.978v1.185h2.365v0.661
		h-2.365v1.459h4.021v0.652H1833.579z M1824.854,410.442v-4.727h3.914c0.245,0,0.544,0.113,0.734,0.287
		c0.201,0.2,0.296,0.365,0.245,0.691v0.981c0.059,0.321-0.038,0.523-0.245,0.771c-0.195,0.16-0.489,0.203-0.734,0.203h-0.652
		l2.12,1.793h-1.223l-1.924-1.793h-1.338v1.793H1824.854z M1828.361,406.412h-2.609v1.583h2.608c0.133,0,0.246,0,0.409-0.163
		c0.082-0.043,0.082-0.163,0.082-0.326v-0.612c0-0.063,0-0.202-0.087-0.367c-0.158-0.016-0.268-0.138-0.402-0.119V406.412z"/>
	<path id="Path_100" fill="none" d="M1976.439,406.48h-3.397v1.189h3.107c0.325,0,0.652,0.018,0.942,0.219
		c0.113,0.271,0.326,0.596,0.253,0.922v0.516c0.073,0.304-0.089,0.626-0.253,0.952c-0.279,0.163-0.611,0.2-0.939,0.163h-2.947
		c-0.34,0.037-0.68,0-0.928-0.163c-0.221-0.326-0.291-0.646-0.291-0.952v-0.064l0.865-0.16v0.688h3.671v-1.305h-3.113
		c-0.337,0-0.676-0.122-0.884-0.326c-0.248-0.163-0.326-0.489-0.326-0.813v-0.491c0-0.326,0.078-0.652,0.326-0.822
		c0.205-0.261,0.547-0.317,0.884-0.317h2.704c0.326,0,0.652,0.06,0.926,0.297c0.166,0.19,0.269,0.516,0.166,0.823v0.019
		l-0.766,0.188V406.48z M1967.633,406.48h-3.475v3.309h3.475v-1.141l0.887,0.162v0.514c0.092,0.306-0.121,0.628-0.234,0.954
		c-0.315,0.163-0.648,0.198-0.979,0.163h-2.822c-0.326,0.035-0.652,0-0.979-0.163c-0.113-0.326-0.259-0.646-0.189-0.956v-2.468
		c-0.066-0.326,0.076-0.652,0.189-0.836c0.326-0.252,0.652-0.303,0.979-0.303h2.822c0.33,0,0.666,0.057,0.979,0.312
		c0.113,0.176,0.326,0.502,0.234,0.828v0.491l-0.887,0.161V406.48z M1959.478,410.442h-0.88v-4.727h0.88V410.442z M1953.947,406.48
		h-3.814v3.309h3.814v-1.305h-1.971v-0.652h2.936v1.498c0,0.302-0.07,0.622-0.291,0.948c-0.248,0.163-0.588,0.202-0.928,0.163
		h-3.303c-0.327,0.033-0.661,0-0.91-0.163c-0.205-0.326-0.326-0.645-0.326-0.95v-2.474c0-0.326,0.118-0.652,0.326-0.825
		c0.245-0.255,0.577-0.314,0.904-0.314h3.304c0.332,0,0.668,0.055,0.906,0.306c0.221,0.181,0.317,0.507,0.317,0.831v0.136
		l-0.976,0.144L1953.947,406.48z M1939.602,406.854c-0.026-0.326,0.099-0.652,0.3-0.828c0.268-0.257,0.61-0.312,0.939-0.312h3.42
		c0.326,0,0.652,0.057,0.979,0.312c0.213,0.176,0.313,0.502,0.246,0.828v2.472c0.063,0.304-0.033,0.626-0.246,0.952
		c-0.326,0.163-0.652,0.2-0.979,0.163h-3.42c-0.332,0.039-0.678,0-0.939-0.163c-0.201-0.326-0.326-0.646-0.302-0.952
		L1939.602,406.854z M1940.516,409.789h4.072v-3.309h-4.072V409.789z M1931.895,410.442v-4.727h0.98v4.075h3.734v0.652H1931.895z
		 M1921.291,406.48h-3.817v3.309h3.817v-1.305h-1.957v-0.652h2.914v1.498c0.021,0.302-0.138,0.622-0.305,0.948
		c-0.273,0.163-0.639,0.202-0.979,0.163h-3.262c-0.326,0.039-0.652,0-0.917-0.163c-0.226-0.326-0.235-0.645-0.226-0.95v-2.474
		c-0.013-0.326,0-0.652,0.226-0.825c0.265-0.26,0.591-0.314,0.917-0.314h3.262c0.326,0,0.66,0.057,0.979,0.306
		c0.162,0.181,0.326,0.507,0.269,0.831v0.136l-0.921,0.144V406.48z M1907.922,406.693c0,0.161,0,0.326,0,0.462
		c0,0.081,0,0.218,0,0.351v2.935h-0.82v-4.727h0.682l3.557,3.096c0.163,0.164,0.219,0.176,0.328,0.326
		c0.112,0.143,0.168,0.18,0.326,0.326c-0.067-0.162-0.109-0.293-0.156-0.428c-0.002-0.076-0.002-0.225-0.002-0.387v-2.934h0.832
		v4.727h-0.573l-3.671-3.096c-0.082-0.156-0.176-0.19-0.326-0.326C1908.077,406.887,1907.932,406.854,1907.922,406.693
		L1907.922,406.693z M1903.188,410.442h-0.92v-4.724h0.92V410.442z M1896.939,406.485v3.957h-0.927v-3.957h-2.283v-0.771h5.537
		v0.771H1896.939z M1887.479,408.651h2.57l-1.266-2.233L1887.479,408.651z M1885.575,410.442l2.773-4.727h0.814l2.936,4.727h-1.001
		l-0.63-1.09h-3.406l-0.568,1.09H1885.575z M1877.421,410.442v-4.727h3.914c0.273,0,0.517,0.116,0.795,0.287
		c0.177,0.2,0.194,0.365,0.184,0.691v0.981c0.02,0.321-0.001,0.519-0.184,0.771c-0.283,0.102-0.521,0.203-0.795,0.203h-0.652
		l2.122,1.793h-1.196l-1.905-1.793h-1.356v1.793H1877.421z M1880.928,406.412h-2.581v1.583h2.581c0.135,0,0.259,0,0.407-0.163
		c0.086-0.048,0.15-0.166,0.11-0.326v-0.612c0.036-0.06-0.036-0.202-0.11-0.367c-0.154-0.016-0.272-0.138-0.416-0.119
		L1880.928,406.412z M1869.105,410.442v-4.727h4.893v0.771h-3.988v1.185h2.357v0.661h-2.357v1.459h3.988v0.652H1869.105z
		 M1860.303,406.693c0.02,0.161,0.047,0.326,0.067,0.462c0,0.081,0,0.218,0,0.351v2.935h-0.835v-4.727h0.698l3.549,3.096
		c0.104,0.164,0.213,0.174,0.288,0.326c0.13,0.145,0.206,0.182,0.305,0.326c-0.021-0.162-0.053-0.295-0.071-0.428
		c-0.018-0.077-0.018-0.225-0.018-0.387v-2.934h0.851v4.727h-0.617l-3.645-3.096c-0.114-0.156-0.245-0.19-0.326-0.326
		c-0.089-0.133-0.167-0.165-0.25-0.326H1860.303z M1851.193,410.442v-4.727h4.873v0.771h-3.976v1.185h2.411v0.661h-2.411v1.459
		h4.031v0.652H1851.193z M1846.545,406.485h-3.833v3.304h3.833v-1.305h-1.969v-0.652h2.866v1.5c0.065,0.305-0.031,0.619-0.245,0.945
		c-0.25,0.163-0.596,0.208-0.938,0.163h-3.274c-0.354,0.043-0.681,0-0.925-0.163c-0.215-0.326-0.326-0.641-0.249-0.946v-2.478
		c-0.077-0.326,0.031-0.652,0.249-0.822c0.245-0.257,0.571-0.317,0.897-0.317h3.295c0.334,0,0.671,0.06,0.945,0.312
		c0.163,0.176,0.29,0.502,0.245,0.828v0.139l-0.897,0.142V406.485z M1833.579,410.442v-4.727h4.875v0.771h-3.978v1.185h2.365v0.661
		h-2.365v1.459h4.021v0.652H1833.579z M1824.854,410.442v-4.727h3.914c0.245,0,0.544,0.113,0.734,0.287
		c0.201,0.2,0.296,0.365,0.245,0.691v0.981c0.059,0.321-0.038,0.523-0.245,0.771c-0.195,0.16-0.489,0.203-0.734,0.203h-0.652
		l2.12,1.793h-1.223l-1.924-1.793h-1.338v1.793H1824.854z M1828.361,406.412h-2.609v1.583h2.608c0.133,0,0.246,0,0.409-0.163
		c0.082-0.043,0.082-0.163,0.082-0.326v-0.612c0-0.063,0-0.202-0.087-0.367c-0.158-0.016-0.268-0.138-0.402-0.119V406.412z"/>
	<rect id="Rectangle_36" x="1819.88" y="401.5" fill="#FFFFFF" width="162.43" height="0.979"/>
	<path id="Path_101" fill="#F5F5F5" d="M1875.729,393.81h-0.807v-3.887h0.962c0.369,0.859,0.891,1.604,1.702,2.093
		c0.704,0.489,1.609,0.811,2.445,0.801c0.491,0.015,0.978-0.148,1.304-0.373c0.326-0.242,0.491-0.581,0.491-0.922
		c0-0.371-0.145-0.713-0.335-0.974c-0.482-0.38-0.998-0.707-1.622-0.89l-0.39-0.225c-3.104-1.311-4.667-2.629-4.667-3.938
		c0-0.916,0.35-1.77,1.116-2.341c0.75-0.652,1.739-0.979,2.745-0.911c0.774-0.007,1.522,0.096,2.336,0.34
		c0.706,0.245,1.117,0.403,1.133,0.403c0.172,0.005,0.337-0.077,0.498-0.207c0.165-0.139,0.258-0.359,0.3-0.537h0.739v3.511h-0.719
		c-0.487-0.742-1.134-1.376-1.926-1.866c-0.591-0.408-1.33-0.652-2.062-0.652c-0.422,0-0.898,0.082-1.289,0.326
		c-0.274,0.163-0.482,0.489-0.488,0.815c0,0.494,0.691,1.049,2.021,1.549l0.162,0.082c2.223,0.897,3.587,1.631,4.184,2.202
		c1.198,1.267,1.145,3.259-0.105,4.458c-0.074,0.027-0.165,0.163-0.259,0.185c-0.885,0.697-2.024,1.059-3.167,0.965
		c-0.676-0.009-1.459-0.11-2.119-0.335c-0.415-0.163-0.817-0.258-1.305-0.326c-0.165,0-0.326,0.023-0.424,0.163
		c-0.211,0.163-0.366,0.326-0.455,0.5 M1860.024,385.312c0.084-0.526-0.05-1.016-0.323-1.471c-0.401-0.272-0.879-0.36-1.359-0.325
		v-0.947h0.422c0.854,0,1.671-0.066,2.418-0.094c0.75-0.054,1.508-0.135,2.213-0.296v2.082c0.436-0.633,1-1.187,1.684-1.543
		c0.665-0.375,1.416-0.541,2.148-0.535c1.386-0.013,2.768,0.565,3.669,1.625c1.944,2.507,1.944,5.953,0,8.46
		c-0.869,1.053-2.213,1.643-3.588,1.564c-0.67,0.005-1.358-0.089-1.975-0.348c-0.635-0.256-1.201-0.652-1.667-1.133v2.111
		c0,0.815,0.117,1.305,0.369,1.468c0.489,0.272,1,0.348,1.56,0.326v0.979h-7.256v-0.979c0.48,0.009,0.953-0.063,1.359-0.326
		c0.273-0.462,0.408-0.979,0.323-1.468V385.312z M1863.669,386.661v3.017c-0.044,0.734,0.195,1.469,0.621,2.037
		c0.411,0.489,1.063,0.79,1.715,0.79c0.642,0,1.241-0.303,1.631-0.79c0.473-0.569,0.657-1.303,0.652-2.037v-3.017
		c0.023-0.736-0.162-1.501-0.569-2.12c-0.408-0.508-1.008-0.815-1.629-0.734c-0.684-0.034-1.336,0.245-1.769,0.734
		C1863.868,385.169,1863.614,385.918,1863.669,386.661L1863.669,386.661z M1851.967,385.321c0-0.779-0.122-1.269-0.29-1.476
		c-0.429-0.241-0.91-0.363-1.393-0.33v-0.947h0.449c0.868,0,1.723-0.065,2.54-0.084c0.817-0.062,1.589-0.144,2.323-0.235v8.49
		c-0.028,0.489,0.065,1.053,0.295,1.472c0.317,0.28,0.684,0.322,1.091,0.313v0.97h-6.699v-0.97c0.476,0.046,0.951-0.028,1.372-0.321
		c0.19-0.186,0.312-0.675,0.312-1.463V385.321z"/>
	<path id="Path_102" fill="#FFFFFF" d="M1983.182,381.233l-3.042,8.571v4.839h-3.914v-4.839l-2.936-8.571h3.911
		c0.393,1.759,0.743,3.523,0.981,5.272c0.249-1.393,0.652-3.187,1.191-5.272H1983.182z M1969.916,381.233v13.41h-3.649l-0.021-9.042
		l-1.436,9.042h-2.609l-1.418-8.835l-0.061,8.835h-3.673v-13.41h5.376c0.102,0.781,0.314,1.759,0.511,2.857l0.569,3.387l0.979-6.244
		H1969.916z M1945.892,381.233h6.952v2.656h-2.781v2.609h2.601v2.528h-2.601v2.975h3.005v2.64h-7.176V381.233z M1936.119,383.537
		v8.821c0.652,0,1.006-0.083,1.141-0.315c0.191-0.512,0.206-1.058,0.191-1.631v-5.219c0-0.408,0-0.813-0.048-1.167
		c-0.075-0.17-0.146-0.3-0.278-0.382C1936.771,383.563,1936.445,383.481,1936.119,383.537L1936.119,383.537z M1931.98,381.233h3.145
		c1.32-0.035,2.667,0.047,4.063,0.21c0.514,0.124,1.205,0.405,1.59,0.803c0.374,0.294,0.552,0.705,0.759,1.154
		c0.06,0.849,0.119,1.712,0.089,2.533v4.726c0.03,0.849-0.048,1.664-0.226,2.435c-0.091,0.39-0.354,0.716-0.681,0.955
		c-0.326,0.25-0.816,0.414-1.282,0.445c-0.678,0.132-1.494,0.159-2.177,0.148h-5.282L1931.98,381.233z M1923.9,389.879
		c-0.164-1.51-0.33-3.398-0.648-5.664c-0.33,2.591-0.656,4.485-0.734,5.664H1923.9z M1926.183,381.233l2.295,13.41h-4.252
		l-0.164-2.39h-1.471l-0.316,2.39h-4.246l2.119-13.41H1926.183z M1914.767,387.069h-4.243v-2.308c0.056-0.465,0-0.873-0.137-1.28
		c-0.026-0.163-0.238-0.245-0.518-0.245c-0.321-0.034-0.536,0.082-0.647,0.321c-0.164,0.413-0.164,0.875-0.164,1.31v6.244
		c0,0.418,0,0.89,0.164,1.253c0.111,0.249,0.326,0.326,0.601,0.303c0.214,0.023,0.473-0.057,0.545-0.303
		c0.156-0.439,0.215-0.913,0.156-1.382v-1.712h4.243v0.554c0,0.997-0.152,2.011-0.38,2.959c-0.327,0.7-0.925,1.189-1.577,1.515
		c-0.906,0.489-1.953,0.674-2.932,0.652c-1.046,0.016-2.115-0.163-3.042-0.543c-0.714-0.272-1.254-0.838-1.527-1.562
		c-0.326-0.966-0.49-1.944-0.429-2.927v-3.928c-0.009-0.721,0.05-1.45,0.103-2.184c0.162-0.52,0.331-1.002,0.734-1.386
		c0.411-0.489,1.033-0.894,1.631-1.06c0.738-0.277,1.552-0.408,2.369-0.408c1.084-0.016,2.118,0.163,3.093,0.619
		c0.652,0.278,1.209,0.803,1.534,1.487c0.259,0.882,0.423,1.808,0.423,2.753V387.069z M1896.991,389.879
		c-0.215-1.51-0.488-3.398-0.652-5.664c-0.432,2.591-0.652,4.485-0.814,5.664H1896.991z M1899.122,381.233l2.436,13.41h-4.24
		l-0.242-2.39h-1.547l-0.168,2.39h-4.316l2.101-13.41H1899.122z"/>
	<path id="Path_103" fill="#FFFFFF" d="M1852.471,376.502c0.598-0.034,1.25,0.134,1.739,0.537c0.408,0.247,0.706,0.734,0.706,1.3
		c-0.135,0.575-0.461,1.064-0.95,1.391c-0.326,0.245-0.626-1.104-0.979-2.057c-0.163-0.553-0.326-0.96-0.571-0.96
		c-0.704,0-1.194,3.343-1.664,3.017c-0.457-0.326-0.709-0.842-0.74-1.391c0.009-0.566,0.283-1.056,0.691-1.3
		C1851.231,376.639,1851.845,376.469,1852.471,376.502"/>
	<path id="Path_104" fill="#FFFFFF" d="M1852.661,376.502c0.651-0.034,1.223,0.163,1.761,0.537c0.44,0.245,0.685,0.734,0.685,1.3
		c-0.082,0.575-0.426,1.064-0.943,1.391c-0.291,0.245-0.606-1.104-0.957-2.057c-0.189-0.553-0.341-0.96-0.575-0.96
		c-0.706,0-1.195,3.343-1.684,3.017c-0.423-0.326-0.734-0.839-0.734-1.391c0-0.566,0.272-1.053,0.717-1.3
		C1851.437,376.638,1852.056,376.469,1852.661,376.502"/>
	<path id="Path_105" fill="#FFFFFF" d="M1826.641,375.409c2.453-0.408,4.818-0.758,7.319-1.142
		c6.713,7.054,17.917,16.961,10.537,19.543c-5.699,1.794-13.053,2.283-20.295,2.772c-0.734,0-1.386,0.027-2.089,0.101
		c-2.151,0.09-4.112,0.226-5.93,0.389l0,0c2.148-0.326,4.326-0.707,6.47-1.139c4.224-0.794,23.874-4.159,15.772-10.902
		c-3.785-3.519-7.781-6.36-11.776-9.622"/>
	<path id="Path_106" fill="#FFFFFF" d="M1827.545,375.245c2.446-0.408,4.946-0.734,7.42-1.142c6.687,7.078,16.91,17.124,9.53,19.706
		c-5.697,1.794-11.927,2.283-19.154,2.772c-0.732,0-1.392,0.027-2.118,0.099c-2.12,0.091-4.403,0.227-6.216,0.329
		c2.139-0.353,4.621-0.646,6.787-1.081c4.201-0.795,23.852-4.163,15.738-10.899C1835.781,381.505,1831.541,378.507,1827.545,375.245
		"/>
	<path id="Path_107" fill="#FFFFFF" d="M1829.992,371.303l6.768,2.067c1.215,13.252-6.952,18.509-14.689,26.458
		c-0.692,0.511-1.375,0.341-0.755-0.427c0.795-1.189,1.664-2.329,2.479-3.471c5.626-7.84,11.171-13.59,6.197-24.626V371.303z"/>
	<path id="Path_108" fill="#FFFFFF" d="M1831.914,378.67l4.718,3.758l0.535-1.556l0.355-1.957l-6.063-3.18L1831.914,378.67z"/>
	<path id="Path_109" fill="#F5F5F5" d="M1822,396.093l2.528-0.546l-1.075,1.044l-1.942,0.154L1822,396.093z"/>
</g>
</svg>
