<?xml version="1.0" encoding="utf-8"?>
<!-- Generator: Adobe Illustrator 15.0.0, SVG Export Plug-In . SVG Version: 6.00 Build 0)  -->
<!DOCTYPE svg PUBLIC "-//W3C//DTD SVG 1.1//EN" "http://www.w3.org/Graphics/SVG/1.1/DTD/svg11.dtd">
<svg version="1.1" id="Layer_1" xmlns="http://www.w3.org/2000/svg" xmlns:xlink="http://www.w3.org/1999/xlink" x="0px" y="0px"
	 width="203.082px" height="69.334px" viewBox="-31.915 -19.5 203.082 69.334"
	 enable-background="new -31.915 -19.5 203.082 69.334" xml:space="preserve">
<g id="Group_23" transform="translate(-1814.122 -393.809)">
	<path id="Path_98" fill="#1A1718" d="M1983.272,380.722c0.004-0.255-0.057-0.507-0.176-0.732c-0.077-0.146-0.226-0.24-0.391-0.246
		c-0.176,0.003-0.334,0.104-0.41,0.262c-0.127,0.217-0.187,0.466-0.174,0.716L1983.272,380.722z M1983.218,381.849l0.756,0.187
		c-0.063,0.341-0.221,0.657-0.457,0.912c-0.207,0.212-0.494,0.329-0.791,0.321c-0.48,0.021-0.921-0.264-1.101-0.71
		c-0.205-0.452-0.303-0.945-0.286-1.441c-0.038-0.567,0.094-1.134,0.377-1.627c0.178-0.359,0.539-0.59,0.939-0.601
		c0.428,0.002,0.82,0.239,1.023,0.616c0.275,0.594,0.395,1.248,0.344,1.9h-1.899c-0.013,0.264,0.052,0.526,0.187,0.754
		c0.079,0.164,0.244,0.271,0.427,0.273c0.115,0.008,0.228-0.041,0.3-0.131c0.098-0.134,0.16-0.289,0.18-0.454H1983.218z
		 M1980.586,378.979v0.889h-0.519v1.689c0,0.34,0,0.543,0.006,0.592c0.01,0.059,0.039,0.111,0.084,0.151
		c0.031,0.029,0.071,0.046,0.113,0.047c0.111-0.006,0.22-0.043,0.311-0.108l0.072,0.869c-0.182,0.107-0.39,0.163-0.601,0.16
		c-0.132,0.002-0.263-0.033-0.378-0.1c-0.104-0.059-0.188-0.149-0.238-0.258c-0.057-0.138-0.094-0.282-0.111-0.429
		c-0.024-0.267-0.035-0.533-0.029-0.801v-1.815h-0.34v-0.89h0.34v-0.826l0.77-0.643v1.468L1980.586,378.979z M1977.345,383.161
		v-0.623c-0.085,0.209-0.223,0.392-0.4,0.53c-0.156,0.127-0.352,0.198-0.555,0.2c-0.188,0.004-0.372-0.063-0.514-0.187
		c-0.162-0.134-0.279-0.313-0.336-0.515c-0.075-0.306-0.108-0.619-0.101-0.934v-2.657h0.757v1.932
		c-0.014,0.36,0.003,0.722,0.051,1.08c0.02,0.119,0.07,0.231,0.146,0.326c0.075,0.071,0.178,0.107,0.281,0.1
		c0.137,0.003,0.269-0.052,0.363-0.15c0.106-0.107,0.18-0.243,0.211-0.392c0.045-0.371,0.063-0.746,0.053-1.12v-1.777h0.759v4.184
		L1977.345,383.161z M1974.485,378.979v0.889h-0.529v1.689c-0.006,0.197,0,0.396,0.02,0.592c0.011,0.054,0.031,0.105,0.061,0.151
		c0.041,0.027,0.087,0.044,0.135,0.047c0.111-0.011,0.219-0.048,0.313-0.108l0.056,0.869c-0.18,0.111-0.389,0.167-0.6,0.16
		c-0.129-0.002-0.254-0.036-0.365-0.1c-0.106-0.054-0.189-0.146-0.23-0.258c-0.07-0.133-0.107-0.279-0.109-0.429
		c-0.026-0.267-0.036-0.533-0.03-0.801v-1.815h-0.351v-0.89h0.351v-0.826l0.757-0.643v1.468L1974.485,378.979z M1971.195,383.161
		v-4.183h0.76v4.183H1971.195z M1971.195,378.42v-1.018h0.76v1.018H1971.195z M1970.22,378.979v0.889h-0.517v1.689
		c-0.007,0.197-0.001,0.396,0.019,0.592c0,0.057,0.021,0.111,0.063,0.151c0.039,0.029,0.087,0.046,0.136,0.047
		c0.107-0.011,0.211-0.048,0.3-0.108l0.066,0.869c-0.18,0.111-0.389,0.167-0.6,0.161c-0.129,0-0.256-0.035-0.367-0.101
		c-0.106-0.06-0.193-0.149-0.25-0.258c-0.055-0.138-0.092-0.282-0.111-0.429c-0.01-0.139-0.01-0.4-0.01-0.801v-1.815h-0.36v-0.889
		h0.36v-0.827l0.757-0.643v1.468L1970.22,378.979z M1965.12,381.987l0.763-0.167c0.021,0.18,0.089,0.351,0.2,0.494
		c0.113,0.108,0.266,0.167,0.423,0.162c0.161,0.007,0.317-0.05,0.437-0.158c0.064-0.087,0.1-0.192,0.101-0.301
		c0.029-0.163-0.079-0.318-0.243-0.348c-0.022-0.004-0.045-0.005-0.068-0.004c-0.418-0.112-0.813-0.294-1.17-0.539
		c-0.229-0.262-0.35-0.603-0.334-0.951c-0.01-0.331,0.096-0.655,0.301-0.917c0.227-0.257,0.559-0.395,0.9-0.373
		c0.318-0.025,0.635,0.076,0.879,0.283c0.217,0.23,0.355,0.522,0.4,0.835l-0.7,0.2c-0.022-0.144-0.089-0.276-0.19-0.38
		c-0.098-0.095-0.23-0.145-0.365-0.136c-0.152-0.014-0.303,0.03-0.424,0.125c-0.063,0.06-0.097,0.146-0.088,0.232
		c-0.008,0.071,0.02,0.142,0.075,0.187c0.211,0.15,0.448,0.259,0.7,0.319c0.326,0.091,0.623,0.263,0.863,0.5
		c0.17,0.236,0.25,0.523,0.229,0.813c0.007,0.358-0.104,0.71-0.317,1c-0.248,0.278-0.609,0.429-0.981,0.409
		c-0.347,0.013-0.685-0.109-0.944-0.342c-0.24-0.262-0.396-0.589-0.449-0.94L1965.12,381.987z M1964.176,383.161h-0.757v-2.12
		c0.004-0.296-0.01-0.592-0.039-0.887c-0.029-0.114-0.089-0.219-0.174-0.3c-0.066-0.075-0.162-0.117-0.262-0.114
		c-0.134-0.003-0.262,0.053-0.351,0.151c-0.112,0.12-0.188,0.268-0.224,0.428c-0.053,0.314-0.07,0.634-0.055,0.952v1.887h-0.773
		v-4.184h0.711v0.622c0.155-0.398,0.523-0.673,0.949-0.71c0.17,0.002,0.336,0.05,0.479,0.141c0.124,0.085,0.227,0.197,0.301,0.329
		c0.08,0.145,0.135,0.303,0.159,0.467c0.03,0.247,0.04,0.497,0.032,0.746L1964.176,383.161z M1959.569,383.161v-5.76h0.8v5.76
		H1959.569z M1954.823,380.992c-0.016,0.327,0.029,0.654,0.133,0.965c0.127,0.295,0.294,0.447,0.52,0.447
		c0.17,0,0.311-0.108,0.438-0.333c0.143-0.302,0.205-0.636,0.182-0.969c0.027-0.358-0.033-0.719-0.175-1.05
		c-0.083-0.177-0.256-0.295-0.451-0.308c-0.198,0.013-0.375,0.129-0.466,0.306c-0.132,0.296-0.195,0.617-0.187,0.94
		L1954.823,380.992z M1956.854,383.161h-0.692v-0.608c-0.105,0.205-0.249,0.388-0.425,0.537c-0.135,0.114-0.307,0.178-0.484,0.179
		c-0.371-0.019-0.699-0.247-0.846-0.589c-0.276-0.493-0.404-1.056-0.371-1.621c-0.034-0.561,0.09-1.12,0.358-1.613
		c0.196-0.466,0.733-0.684,1.198-0.487c0.232,0.098,0.414,0.286,0.502,0.522v-2.08h0.76V383.161z M1952.401,380.722
		c0.014-0.254-0.043-0.508-0.164-0.732c-0.082-0.146-0.232-0.238-0.399-0.246c-0.175,0.008-0.333,0.107-0.417,0.262
		c-0.117,0.22-0.17,0.468-0.15,0.716L1952.401,380.722z M1952.367,381.849l0.758,0.187c-0.07,0.34-0.23,0.655-0.464,0.912
		c-0.205,0.21-0.488,0.326-0.782,0.322c-0.483,0.016-0.928-0.267-1.12-0.711c-0.202-0.453-0.299-0.945-0.283-1.441
		c-0.03-0.566,0.098-1.13,0.369-1.628c0.182-0.355,0.541-0.586,0.94-0.601c0.429-0.001,0.823,0.236,1.021,0.616
		c0.281,0.592,0.4,1.247,0.346,1.9h-1.893c-0.012,0.263,0.051,0.524,0.182,0.754c0.085,0.165,0.254,0.27,0.439,0.273
		c0.111,0.004,0.219-0.044,0.291-0.131c0.102-0.132,0.168-0.288,0.192-0.453H1952.367z M1948.707,383.161v-4.183h0.757v4.183
		H1948.707z M1948.707,378.42v-1.018h0.757v1.018H1948.707z M1946.55,378.979h0.43v-0.301c-0.01-0.269,0.016-0.537,0.074-0.8
		c0.043-0.169,0.144-0.317,0.283-0.423c0.156-0.113,0.346-0.169,0.537-0.159c0.218,0,0.434,0.046,0.631,0.136l-0.1,0.784
		c-0.11-0.05-0.23-0.073-0.352-0.068c-0.096-0.01-0.188,0.027-0.25,0.1c-0.055,0.144-0.079,0.296-0.072,0.449v0.285h0.57v0.883
		h-0.57v3.3h-0.756v-3.3h-0.43L1946.55,378.979z M1944.891,383.161v-4.183h0.756v4.183H1944.891z M1944.891,378.42v-1.018h0.756
		v1.018H1944.891z M1943.927,378.979v0.889h-0.531v1.69c-0.007,0.196,0,0.395,0.019,0.591c0.011,0.057,0.038,0.109,0.076,0.151
		c0.034,0.028,0.077,0.045,0.121,0.047c0.111-0.01,0.218-0.047,0.312-0.108l0.057,0.869c-0.176,0.109-0.38,0.165-0.588,0.161
		c-0.134-0.001-0.266-0.035-0.383-0.101c-0.104-0.058-0.186-0.148-0.23-0.258c-0.063-0.135-0.1-0.28-0.109-0.429
		c-0.025-0.267-0.035-0.533-0.029-0.8v-1.816h-0.34v-0.889h0.34v-0.827l0.756-0.643v1.469L1943.927,378.979z M1940.75,383.161
		h-0.771v-4.183h0.699v0.6c0.078-0.204,0.191-0.392,0.336-0.554c0.088-0.085,0.204-0.135,0.326-0.14
		c0.188,0.003,0.368,0.08,0.5,0.215l-0.225,0.955c-0.102-0.098-0.231-0.161-0.371-0.181c-0.105,0.006-0.201,0.056-0.268,0.137
		c-0.092,0.14-0.148,0.299-0.169,0.465c-0.058,0.46-0.077,0.925-0.058,1.389L1940.75,383.161z M1938.21,380.722
		c0.006-0.256-0.059-0.509-0.184-0.732c-0.074-0.148-0.225-0.243-0.391-0.246c-0.172,0.007-0.325,0.107-0.4,0.262
		c-0.125,0.218-0.185,0.466-0.172,0.716L1938.21,380.722z M1938.156,381.85l0.756,0.186c-0.063,0.34-0.222,0.656-0.454,0.912
		c-0.209,0.212-0.496,0.328-0.794,0.322c-0.479,0.017-0.919-0.267-1.101-0.71c-0.207-0.452-0.307-0.945-0.291-1.442
		c-0.037-0.568,0.096-1.136,0.383-1.628c0.177-0.359,0.539-0.591,0.939-0.6c0.427,0.002,0.818,0.238,1.02,0.615
		c0.279,0.593,0.398,1.247,0.348,1.9h-1.908c-0.01,0.266,0.061,0.528,0.2,0.754c0.079,0.165,0.244,0.271,0.427,0.274
		c0.115,0.007,0.228-0.042,0.301-0.132c0.093-0.135,0.152-0.29,0.172-0.453L1938.156,381.85z M1934.604,381.049l0.777,0.344
		c-0.069,0.514-0.277,1-0.6,1.406c-0.264,0.306-0.649,0.476-1.053,0.464c-0.545-0.003-1.046-0.301-1.311-0.777
		c-0.377-0.653-0.557-1.402-0.515-2.156c-0.049-0.78,0.129-1.558,0.512-2.239c0.272-0.488,0.788-0.792,1.347-0.793
		c0.475-0.002,0.92,0.232,1.188,0.625c0.213,0.318,0.354,0.681,0.412,1.06l-0.801,0.274c-0.04-0.253-0.141-0.493-0.293-0.7
		c-0.135-0.16-0.332-0.254-0.543-0.256c-0.308,0.003-0.587,0.183-0.717,0.462c-0.215,0.462-0.309,0.972-0.272,1.479
		c-0.039,0.533,0.052,1.069,0.267,1.56c0.127,0.279,0.402,0.461,0.709,0.467c0.221-0.003,0.425-0.115,0.545-0.3
		c0.185-0.276,0.303-0.592,0.346-0.922L1934.604,381.049z M1926.823,381.684l0.763-0.105c0.013,0.209,0.08,0.411,0.195,0.586
		c0.075,0.139,0.22,0.225,0.377,0.228c0.176-0.015,0.329-0.125,0.399-0.286c0.121-0.271,0.177-0.566,0.164-0.863
		c0.013-0.276-0.043-0.551-0.164-0.8c-0.082-0.162-0.248-0.265-0.43-0.268c-0.257,0.026-0.481,0.186-0.591,0.419l-0.623-0.125
		l0.387-3h2.03v1.039h-1.452l-0.101,0.978c0.143-0.118,0.322-0.184,0.507-0.185c0.363,0.009,0.692,0.214,0.862,0.535
		c0.257,0.418,0.383,0.903,0.361,1.394c0.008,0.438-0.088,0.873-0.281,1.268c-0.173,0.451-0.598,0.755-1.08,0.771
		c-0.35,0.006-0.683-0.151-0.9-0.425c-0.254-0.337-0.404-0.742-0.431-1.164L1926.823,381.684z M1925.245,383.164h-0.766v-4.177
		c-0.25,0.362-0.59,0.654-0.985,0.847v-1.01c0.565-0.308,0.978-0.836,1.138-1.46h0.613V383.164z M1921.057,378.286
		c-0.094,0.006-0.18,0.057-0.231,0.136c-0.093,0.136-0.149,0.293-0.165,0.457c-0.072,0.479-0.102,0.964-0.089,1.448
		c-0.016,0.465,0.013,0.931,0.086,1.391c0.013,0.182,0.071,0.356,0.169,0.51c0.049,0.079,0.137,0.126,0.23,0.125
		c0.1,0.003,0.193-0.044,0.252-0.125c0.09-0.137,0.145-0.292,0.159-0.453c0.067-0.479,0.092-0.964,0.073-1.447
		c0.018-0.468-0.002-0.936-0.061-1.4c-0.021-0.177-0.08-0.348-0.174-0.5c-0.057-0.085-0.15-0.138-0.252-0.144L1921.057,378.286z
		 M1921.057,377.365c0.396,0.009,0.751,0.245,0.91,0.608c0.52,1.526,0.52,3.183,0,4.71c-0.162,0.353-0.512,0.582-0.9,0.59
		c-0.409-0.02-0.771-0.273-0.928-0.652c-0.291-0.729-0.412-1.517-0.35-2.3c-0.061-0.804,0.074-1.609,0.391-2.351
		c0.142-0.36,0.486-0.601,0.875-0.608L1921.057,377.365z M1918.824,382.138v1.025h-2.657c0.015-0.382,0.1-0.758,0.252-1.109
		c0.233-0.485,0.52-0.945,0.852-1.369c0.238-0.301,0.453-0.62,0.641-0.954c0.1-0.21,0.15-0.439,0.15-0.671
		c0.019-0.2-0.027-0.4-0.131-0.572c-0.084-0.132-0.232-0.209-0.389-0.2c-0.156-0.003-0.301,0.081-0.377,0.217
		c-0.109,0.212-0.162,0.447-0.156,0.686l-0.756-0.115c-0.007-0.467,0.138-0.922,0.412-1.3c0.228-0.258,0.555-0.405,0.899-0.406
		c0.37-0.013,0.722,0.162,0.935,0.464c0.221,0.339,0.334,0.736,0.324,1.142c0.008,0.253-0.025,0.506-0.1,0.748
		c-0.064,0.262-0.168,0.512-0.31,0.74c-0.146,0.258-0.31,0.506-0.487,0.742c-0.244,0.312-0.391,0.531-0.466,0.639
		c-0.058,0.096-0.108,0.196-0.147,0.301L1918.824,382.138z M1914.283,383.163v-1.106h0.759v1.106H1914.283z M1914.283,380.087
		v-1.106h0.759v1.109L1914.283,380.087z M1912.394,383.163h-0.757v-4.177c-0.252,0.36-0.592,0.651-0.985,0.847v-1.01
		c0.249-0.132,0.468-0.314,0.644-0.535c0.233-0.266,0.4-0.582,0.486-0.925h0.612V383.163z M1908.218,378.285
		c-0.097,0.006-0.185,0.056-0.238,0.136c-0.097,0.135-0.156,0.292-0.174,0.457c-0.057,0.48-0.082,0.965-0.073,1.448
		c-0.009,0.465,0.013,0.929,0.063,1.391c0.023,0.182,0.086,0.355,0.184,0.51c0.053,0.078,0.143,0.125,0.238,0.125
		c0.098-0.001,0.189-0.048,0.248-0.125c0.086-0.139,0.141-0.293,0.164-0.453c0.057-0.48,0.081-0.964,0.072-1.447
		c0.008-0.468-0.014-0.935-0.062-1.4c-0.026-0.176-0.085-0.346-0.175-0.5c-0.059-0.081-0.149-0.133-0.25-0.143L1908.218,378.285z
		 M1908.218,377.364c0.395,0.008,0.75,0.245,0.908,0.607c0.52,1.527,0.52,3.184,0,4.711c-0.162,0.353-0.512,0.582-0.9,0.59
		c-0.41-0.017-0.773-0.271-0.928-0.652c-0.3-0.728-0.426-1.515-0.369-2.3c-0.051-0.803,0.082-1.607,0.392-2.351
		c0.153-0.36,0.504-0.599,0.896-0.607L1908.218,377.364z M1904.694,378.285c-0.095,0.005-0.182,0.056-0.232,0.136
		c-0.102,0.133-0.164,0.291-0.18,0.457c-0.096,0.944-0.098,1.895-0.008,2.839c0.02,0.184,0.085,0.358,0.189,0.51
		c0.049,0.079,0.137,0.127,0.23,0.125c0.1-0.003,0.191-0.049,0.254-0.125c0.08-0.141,0.133-0.294,0.157-0.453
		c0.058-0.48,0.082-0.964,0.073-1.447c0.008-0.468-0.014-0.936-0.063-1.4c-0.026-0.175-0.084-0.345-0.171-0.5
		c-0.061-0.081-0.152-0.133-0.254-0.143L1904.694,378.285z M1904.694,377.364c0.396,0.008,0.75,0.245,0.908,0.607
		c0.521,1.527,0.521,3.184,0,4.711c-0.162,0.353-0.512,0.582-0.9,0.59c-0.41-0.017-0.773-0.271-0.928-0.652
		c-0.301-0.728-0.428-1.515-0.371-2.3c-0.05-0.803,0.084-1.607,0.393-2.351c0.154-0.359,0.504-0.596,0.895-0.607L1904.694,377.364z
		 M1901.636,379.415c0.013-0.288-0.051-0.575-0.187-0.831c-0.101-0.2-0.231-0.3-0.39-0.3c-0.148,0.009-0.279,0.1-0.34,0.235
		c-0.113,0.251-0.164,0.525-0.149,0.8c-0.015,0.282,0.042,0.564,0.163,0.82c0.066,0.149,0.212,0.25,0.376,0.258
		c0.159-0.011,0.3-0.109,0.364-0.256c0.115-0.226,0.17-0.477,0.158-0.729L1901.636,379.415z M1899.906,381.828l0.751-0.124
		c-0.004,0.174,0.041,0.345,0.129,0.494c0.064,0.103,0.18,0.161,0.301,0.152c0.162,0,0.287-0.109,0.399-0.308
		c0.146-0.424,0.218-0.87,0.212-1.318c-0.131,0.286-0.41,0.475-0.725,0.489c-0.342-0.015-0.65-0.216-0.8-0.524
		c-0.245-0.412-0.365-0.886-0.348-1.364c-0.022-0.499,0.101-0.994,0.353-1.425c0.194-0.326,0.543-0.529,0.922-0.537
		c0.436,0.024,0.82,0.291,0.996,0.689c0.306,0.702,0.439,1.467,0.39,2.231c0.049,0.784-0.091,1.569-0.407,2.289
		c-0.186,0.413-0.591,0.686-1.044,0.7c-0.298,0.005-0.581-0.13-0.765-0.363c-0.217-0.321-0.344-0.695-0.367-1.083L1899.906,381.828z
		 M1894.417,380.278c-0.033,0.519,0.074,1.037,0.313,1.5c0.213,0.438,0.74,0.622,1.18,0.409c0.178-0.087,0.322-0.23,0.409-0.409
		c0.235-0.47,0.343-0.993,0.31-1.518c0.035-0.51-0.068-1.019-0.299-1.475c-0.153-0.302-0.463-0.491-0.801-0.489
		c-0.338,0.005-0.646,0.192-0.805,0.489C1894.491,379.246,1894.386,379.761,1894.417,380.278L1894.417,380.278z M1893.595,380.324
		c-0.016-0.502,0.045-1.003,0.18-1.487c0.082-0.279,0.205-0.544,0.365-0.787c0.136-0.21,0.313-0.392,0.519-0.532
		c0.787-0.445,1.784-0.196,2.271,0.565c0.684,1.387,0.684,3.014,0,4.4c-0.299,0.49-0.832,0.789-1.406,0.785
		c-0.573,0.011-1.107-0.287-1.4-0.78c-0.388-0.653-0.572-1.407-0.531-2.165L1893.595,380.324z M1889.415,381.302l0.785-0.117
		c0.006,0.302,0.104,0.596,0.281,0.841c0.137,0.179,0.354,0.278,0.579,0.266c0.222,0.015,0.438-0.077,0.582-0.248
		c0.133-0.149,0.204-0.344,0.2-0.544c0.001-0.124-0.025-0.247-0.08-0.359c-0.076-0.104-0.174-0.188-0.287-0.246
		c-0.092-0.039-0.307-0.12-0.65-0.248c-0.348-0.103-0.658-0.305-0.893-0.58c-0.256-0.332-0.388-0.742-0.374-1.161
		c0.003-0.286,0.063-0.567,0.179-0.829c0.099-0.238,0.27-0.439,0.489-0.574c0.233-0.145,0.505-0.216,0.78-0.206
		c0.432-0.031,0.853,0.15,1.127,0.486c0.268,0.371,0.408,0.819,0.4,1.277l-0.813,0.039c-0.009-0.232-0.087-0.456-0.225-0.644
		c-0.125-0.136-0.305-0.209-0.49-0.2c-0.205-0.007-0.405,0.071-0.553,0.215c-0.086,0.101-0.133,0.229-0.131,0.36
		c0,0.127,0.044,0.249,0.123,0.348c0.216,0.188,0.472,0.322,0.748,0.395c0.307,0.089,0.596,0.226,0.858,0.406
		c0.188,0.162,0.337,0.368,0.429,0.6c0.12,0.292,0.178,0.606,0.172,0.922c-0.004,0.314-0.067,0.624-0.188,0.914
		c-0.106,0.27-0.299,0.496-0.547,0.645c-0.26,0.156-0.561,0.232-0.862,0.218c-0.443,0.029-0.874-0.157-1.155-0.5
		C1889.597,382.344,1889.427,381.83,1889.415,381.302L1889.415,381.302z M1887.615,383.162v-5.76h0.812v5.76H1887.615z
		 M1884.891,383.162h-0.756v-2.12c0.012-0.297-0.008-0.594-0.057-0.887c-0.021-0.113-0.076-0.218-0.156-0.3
		c-0.064-0.075-0.16-0.117-0.26-0.114c-0.139-0.005-0.271,0.051-0.365,0.152c-0.111,0.118-0.184,0.267-0.209,0.427
		c-0.061,0.313-0.086,0.633-0.072,0.952v1.887h-0.756v-4.183h0.709v0.622c0.151-0.402,0.521-0.679,0.949-0.711
		c0.322,0.015,0.616,0.191,0.779,0.471c0.073,0.147,0.127,0.305,0.159,0.467c0.017,0.171,0.032,0.413,0.032,0.746L1884.891,383.162z
		 M1879.949,380.87l-0.554-2.125l-0.539,2.125H1879.949z M1881.422,383.162h-0.865l-0.354-1.3h-1.589l-0.332,1.3h-0.845l1.539-5.76
		h0.844L1881.422,383.162z"/>
	<rect id="Rectangle_34" x="1788.661" y="414.645" fill="#1A1718" width="194.139" height="10.568"/>
	
		<rect id="Rectangle_35" x="1788.661" y="414.645" fill="none" stroke="#1A1718" stroke-width="0.5" stroke-miterlimit="2.613" width="194.139" height="10.568"/>
	<path id="Path_99" fill="#FFFFFF" d="M1975.792,417.944h-4.046v1.467h3.71c0.389-0.042,0.779,0.057,1.1,0.278
		c0.236,0.296,0.345,0.675,0.301,1.052v0.682c0.043,0.374-0.061,0.75-0.291,1.048c-0.323,0.225-0.717,0.324-1.107,0.28h-3.518
		c-0.399,0.044-0.801-0.056-1.135-0.28c-0.234-0.295-0.342-0.672-0.299-1.048v-0.162l1-0.192v0.826h4.37v-1.577h-3.714
		c-0.396,0.045-0.795-0.054-1.125-0.278c-0.232-0.298-0.338-0.675-0.294-1.05v-0.538c-0.044-0.38,0.062-0.762,0.294-1.065
		c0.328-0.229,0.729-0.33,1.125-0.284h3.217c0.387-0.039,0.775,0.057,1.1,0.271c0.237,0.269,0.35,0.624,0.311,0.979v0.128l-1,0.214
		L1975.792,417.944z M1965.238,417.944h-4.049v3.949h4.049v-1.345l1.078,0.206v0.667c0.042,0.375-0.065,0.751-0.3,1.046
		c-0.326,0.226-0.721,0.326-1.114,0.282h-3.399c-0.396,0.044-0.794-0.052-1.125-0.271c-0.232-0.301-0.336-0.682-0.289-1.059v-2.973
		c-0.045-0.382,0.059-0.767,0.293-1.072c0.328-0.224,0.726-0.323,1.121-0.278h3.399c0.394-0.043,0.79,0.059,1.114,0.285
		c0.236,0.302,0.344,0.685,0.3,1.065v0.538l-1.078,0.173V417.944z M1955.544,422.75h-1.101v-5.635h1.101V422.75z M1948.927,417.944
		h-4.574v3.949h4.574v-1.53h-2.369v-0.764h3.464v1.826c0.042,0.374-0.065,0.749-0.3,1.043c-0.333,0.227-0.735,0.327-1.135,0.282
		h-3.927c-0.392,0.042-0.786-0.056-1.112-0.276c-0.234-0.296-0.344-0.674-0.3-1.05v-2.976c-0.044-0.381,0.063-0.764,0.3-1.065
		c0.323-0.226,0.717-0.327,1.108-0.285h3.927c0.395-0.042,0.791,0.057,1.12,0.28c0.235,0.271,0.347,0.628,0.31,0.985v0.177
		l-1.094,0.182L1948.927,417.944z M1931.78,418.45c-0.045-0.382,0.063-0.766,0.301-1.068c0.33-0.227,0.732-0.327,1.131-0.282h4.176
		c0.396-0.043,0.795,0.057,1.123,0.282c0.232,0.305,0.338,0.688,0.293,1.068v2.973c0.043,0.374-0.063,0.749-0.293,1.046
		c-0.328,0.226-0.727,0.326-1.123,0.282h-4.176c-0.4,0.045-0.805-0.055-1.139-0.28c-0.232-0.296-0.338-0.673-0.294-1.048
		L1931.78,418.45z M1932.88,421.893h4.846v-3.949h-4.846V421.893z M1922.581,422.75v-5.651h1.1v4.794h4.494v0.857H1922.581z
		 M1909.87,417.944h-4.572v3.949h4.572v-1.53h-2.365v-0.764h3.463v1.826c0.043,0.374-0.065,0.749-0.301,1.043
		c-0.33,0.228-0.731,0.328-1.129,0.282h-3.908c-0.399,0.045-0.802-0.053-1.135-0.276c-0.236-0.296-0.344-0.674-0.301-1.05v-2.976
		c-0.045-0.381,0.063-0.764,0.301-1.065c0.328-0.229,0.73-0.33,1.129-0.285h3.907c0.394-0.042,0.79,0.058,1.117,0.28
		c0.235,0.271,0.347,0.628,0.31,0.985v0.177l-1.1,0.182L1909.87,417.944z M1893.857,418.244c0.032,0.163,0.057,0.327,0.071,0.493
		c0,0.172,0,0.351,0,0.517v3.5h-1v-5.65h0.824l4.26,3.699c0.123,0.106,0.238,0.221,0.347,0.341c0.126,0.132,0.241,0.273,0.345,0.425
		c-0.035-0.169-0.064-0.336-0.082-0.507c-0.018-0.172-0.014-0.352-0.014-0.539v-3.42h1v5.65h-0.741l-4.344-3.746
		c-0.142-0.13-0.278-0.27-0.39-0.382c-0.102-0.121-0.195-0.25-0.281-0.384L1893.857,418.244z M1888.243,422.753h-1.101v-5.635h1.101
		V422.753z M1880.757,417.947v4.807h-1.1v-4.807h-2.731v-0.844h6.563v0.844H1880.757z M1869.445,420.625h3.085l-1.534-2.694
		L1869.445,420.625z M1867.165,422.753l3.352-5.65h0.982l3.428,5.65h-1.188l-0.747-1.312h-4l-0.73,1.312H1867.165z
		 M1857.445,422.753v-5.65h4.653c0.33-0.031,0.659,0.063,0.923,0.263c0.206,0.225,0.308,0.524,0.283,0.828v1.264
		c0.03,0.304-0.073,0.606-0.283,0.828c-0.269,0.189-0.595,0.279-0.923,0.252h-0.763l2.55,2.215h-1.465l-2.308-2.215h-1.586v2.215
		L1857.445,422.753z M1861.62,417.929h-3.094v1.826h3.094c0.173,0.021,0.349-0.022,0.493-0.121c0.095-0.132,0.136-0.296,0.112-0.457
		v-0.668c0.02-0.157-0.024-0.315-0.121-0.44c-0.14-0.105-0.314-0.156-0.489-0.143L1861.62,417.929z M1847.467,422.753v-5.65h5.826
		v0.844h-4.729v1.451h2.837v0.844h-2.837v1.683h4.783v0.829H1847.467z M1836.977,418.244c0.033,0.163,0.058,0.327,0.073,0.493
		c0,0.172,0,0.351,0,0.517v3.5h-1v-5.65h0.823l4.262,3.699c0.123,0.106,0.239,0.22,0.347,0.34c0.125,0.134,0.241,0.275,0.346,0.426
		c-0.038-0.168-0.067-0.337-0.086-0.507c-0.012-0.173-0.012-0.352-0.012-0.539v-3.421h1v5.651h-0.738l-4.346-3.746
		c-0.14-0.13-0.278-0.27-0.39-0.382c-0.103-0.122-0.197-0.25-0.284-0.384L1836.977,418.244z M1826.078,422.753v-5.65h5.827v0.844
		h-4.729v1.451h2.858v0.844h-2.858v1.683h4.8v0.829H1826.078z M1820.524,417.947h-4.572v3.949h4.572v-1.53h-2.367v-0.763h3.464
		v1.825c0.042,0.374-0.065,0.749-0.3,1.043c-0.332,0.229-0.736,0.328-1.136,0.282h-3.908c-0.397,0.045-0.796-0.054-1.128-0.275
		c-0.236-0.297-0.344-0.675-0.3-1.051v-2.976c-0.045-0.381,0.063-0.764,0.3-1.065c0.328-0.228,0.727-0.329,1.123-0.285h3.908
		c0.396-0.042,0.793,0.057,1.122,0.28c0.235,0.271,0.348,0.628,0.311,0.985v0.177l-1.1,0.182L1820.524,417.947z M1805.017,422.753
		v-5.65h5.826v0.844h-4.729v1.451h2.847v0.844h-2.847v1.683h4.8v0.829H1805.017z M1794.611,422.753v-5.65h4.649
		c0.33-0.034,0.66,0.061,0.923,0.263c0.212,0.221,0.319,0.522,0.294,0.828v1.264c0.03,0.306-0.078,0.609-0.294,0.828
		c-0.267,0.192-0.595,0.282-0.923,0.252h-0.764l2.563,2.215h-1.462l-2.324-2.215h-1.591v2.215L1794.611,422.753z M1798.782,417.929
		h-3.1v1.826h3.086c0.174,0.021,0.349-0.022,0.493-0.121c0.102-0.129,0.147-0.294,0.128-0.457v-0.668
		c0.015-0.159-0.034-0.318-0.137-0.44c-0.137-0.104-0.308-0.155-0.48-0.143L1798.782,417.929z"/>
	<path id="Path_100" fill="none" d="M1975.792,417.944h-4.046v1.467h3.71c0.389-0.042,0.779,0.057,1.1,0.278
		c0.236,0.296,0.345,0.675,0.301,1.052v0.682c0.043,0.374-0.061,0.75-0.291,1.048c-0.323,0.225-0.717,0.324-1.107,0.28h-3.518
		c-0.399,0.044-0.801-0.056-1.135-0.28c-0.234-0.295-0.342-0.672-0.299-1.048v-0.162l1-0.192v0.826h4.37v-1.577h-3.714
		c-0.396,0.045-0.795-0.054-1.125-0.278c-0.232-0.298-0.338-0.675-0.294-1.05v-0.538c-0.044-0.38,0.062-0.762,0.294-1.065
		c0.328-0.229,0.729-0.33,1.125-0.284h3.219c0.387-0.039,0.775,0.057,1.1,0.271c0.236,0.269,0.35,0.624,0.31,0.979v0.128l-1,0.214
		L1975.792,417.944z M1965.238,417.944h-4.049v3.949h4.049v-1.345l1.078,0.206v0.667c0.042,0.375-0.065,0.751-0.3,1.046
		c-0.326,0.226-0.721,0.326-1.114,0.282h-3.399c-0.396,0.044-0.794-0.052-1.125-0.271c-0.232-0.301-0.336-0.682-0.289-1.059v-2.973
		c-0.045-0.382,0.059-0.767,0.293-1.072c0.328-0.224,0.726-0.323,1.121-0.278h3.399c0.394-0.043,0.79,0.059,1.114,0.285
		c0.236,0.302,0.344,0.685,0.3,1.065v0.538l-1.078,0.173V417.944z M1955.544,422.75h-1.101v-5.635h1.101V422.75z M1948.927,417.944
		h-4.574v3.949h4.574v-1.53h-2.369v-0.764h3.464v1.826c0.042,0.374-0.065,0.749-0.3,1.043c-0.333,0.227-0.735,0.327-1.135,0.282
		h-3.927c-0.392,0.042-0.786-0.056-1.112-0.276c-0.234-0.296-0.344-0.674-0.3-1.05v-2.976c-0.044-0.381,0.063-0.764,0.3-1.065
		c0.323-0.226,0.717-0.327,1.108-0.285h3.927c0.395-0.042,0.791,0.057,1.12,0.28c0.235,0.271,0.347,0.628,0.31,0.985v0.177
		l-1.094,0.182L1948.927,417.944z M1931.78,418.45c-0.045-0.382,0.063-0.766,0.301-1.068c0.33-0.227,0.732-0.327,1.131-0.282h4.176
		c0.396-0.043,0.795,0.057,1.123,0.282c0.232,0.305,0.338,0.688,0.293,1.068v2.973c0.043,0.374-0.063,0.749-0.293,1.046
		c-0.328,0.226-0.727,0.326-1.123,0.282h-4.176c-0.4,0.045-0.805-0.055-1.139-0.28c-0.232-0.296-0.338-0.673-0.294-1.048
		L1931.78,418.45z M1932.88,421.893h4.846v-3.949h-4.846V421.893z M1922.581,422.75v-5.651h1.1v4.794h4.494v0.857H1922.581z
		 M1909.87,417.944h-4.572v3.949h4.572v-1.53h-2.365v-0.764h3.463v1.826c0.043,0.374-0.065,0.749-0.301,1.043
		c-0.33,0.228-0.731,0.328-1.129,0.282h-3.908c-0.399,0.045-0.802-0.053-1.135-0.276c-0.236-0.296-0.344-0.674-0.301-1.05v-2.976
		c-0.045-0.381,0.063-0.764,0.301-1.065c0.328-0.229,0.73-0.33,1.129-0.285h3.907c0.394-0.042,0.79,0.058,1.117,0.28
		c0.235,0.271,0.347,0.628,0.31,0.985v0.177l-1.1,0.182L1909.87,417.944z M1893.857,418.244c0.032,0.163,0.057,0.327,0.071,0.493
		c0,0.172,0,0.351,0,0.517v3.5h-1v-5.65h0.824l4.26,3.699c0.123,0.106,0.238,0.221,0.347,0.341c0.126,0.132,0.241,0.273,0.345,0.425
		c-0.035-0.169-0.064-0.336-0.082-0.507c-0.018-0.172-0.014-0.352-0.014-0.539v-3.42h1v5.65h-0.741l-4.344-3.746
		c-0.142-0.13-0.278-0.27-0.39-0.382c-0.102-0.121-0.195-0.25-0.281-0.384L1893.857,418.244z M1888.243,422.753h-1.101v-5.635h1.101
		V422.753z M1880.757,417.947v4.807h-1.1v-4.807h-2.731v-0.844h6.563v0.844H1880.757z M1869.445,420.625h3.085l-1.534-2.694
		L1869.445,420.625z M1867.165,422.753l3.352-5.65h0.982l3.428,5.65h-1.188l-0.747-1.312h-4l-0.73,1.312H1867.165z
		 M1857.445,422.753v-5.65h4.653c0.33-0.031,0.659,0.063,0.923,0.263c0.206,0.225,0.308,0.524,0.283,0.828v1.264
		c0.03,0.304-0.073,0.606-0.283,0.828c-0.269,0.189-0.595,0.279-0.923,0.252h-0.763l2.55,2.215h-1.465l-2.308-2.215h-1.586v2.215
		L1857.445,422.753z M1861.62,417.929h-3.094v1.826h3.094c0.173,0.021,0.349-0.022,0.493-0.121c0.095-0.132,0.136-0.296,0.112-0.457
		v-0.668c0.02-0.157-0.024-0.315-0.121-0.44c-0.14-0.105-0.314-0.156-0.489-0.143L1861.62,417.929z M1847.467,422.753v-5.65h5.826
		v0.844h-4.729v1.451h2.837v0.844h-2.837v1.683h4.783v0.829H1847.467z M1836.977,418.244c0.033,0.163,0.058,0.327,0.073,0.493
		c0,0.172,0,0.351,0,0.517v3.5h-1v-5.65h0.823l4.262,3.699c0.123,0.106,0.239,0.22,0.347,0.34c0.125,0.134,0.241,0.275,0.346,0.426
		c-0.038-0.168-0.067-0.337-0.086-0.507c-0.012-0.173-0.012-0.352-0.012-0.539v-3.421h1v5.651h-0.738l-4.346-3.746
		c-0.14-0.13-0.278-0.27-0.39-0.382c-0.103-0.122-0.197-0.25-0.284-0.384L1836.977,418.244z M1826.078,422.753v-5.65h5.827v0.844
		h-4.729v1.451h2.858v0.844h-2.858v1.683h4.8v0.829H1826.078z M1820.524,417.947h-4.572v3.949h4.572v-1.53h-2.367v-0.763h3.464
		v1.825c0.042,0.374-0.065,0.749-0.3,1.043c-0.332,0.229-0.736,0.328-1.136,0.282h-3.908c-0.397,0.045-0.796-0.054-1.128-0.275
		c-0.236-0.297-0.344-0.675-0.3-1.051v-2.976c-0.045-0.381,0.063-0.764,0.3-1.065c0.328-0.228,0.727-0.329,1.123-0.285h3.908
		c0.396-0.042,0.793,0.057,1.122,0.28c0.235,0.271,0.348,0.628,0.311,0.985v0.177l-1.1,0.182L1820.524,417.947z M1805.017,422.753
		v-5.65h5.826v0.844h-4.729v1.451h2.847v0.844h-2.847v1.683h4.8v0.829H1805.017z M1794.611,422.753v-5.65h4.649
		c0.33-0.034,0.66,0.061,0.923,0.263c0.212,0.221,0.319,0.522,0.294,0.828v1.264c0.03,0.306-0.078,0.609-0.294,0.828
		c-0.267,0.192-0.595,0.282-0.923,0.252h-0.764l2.563,2.215h-1.462l-2.324-2.215h-1.591v2.215L1794.611,422.753z M1798.782,417.929
		h-3.1v1.826h3.086c0.174,0.021,0.349-0.022,0.493-0.121c0.102-0.129,0.147-0.294,0.128-0.457v-0.668
		c0.015-0.159-0.034-0.318-0.137-0.44c-0.137-0.104-0.308-0.155-0.48-0.143L1798.782,417.929z"/>
	<rect id="Rectangle_36" x="1788.661" y="412.067" fill="#E3001B" width="194.139" height="1.17"/>
	<path id="Path_101" fill="#1A1718" d="M1855.395,402.87h-0.956v-4.667h1.146c0.413,1.012,1.113,1.88,2.013,2.5
		c0.877,0.594,1.915,0.908,2.974,0.9c0.554,0.028,1.103-0.118,1.569-0.418c0.367-0.248,0.583-0.666,0.573-1.108
		c0.011-0.43-0.156-0.844-0.461-1.146c-0.557-0.456-1.185-0.817-1.86-1.068l-0.515-0.236c-3.708-1.606-5.563-3.175-5.563-4.737
		c-0.033-1.085,0.447-2.122,1.295-2.8c0.936-0.751,2.111-1.14,3.311-1.093c0.936-0.005,1.867,0.145,2.755,0.442
		c0.9,0.3,1.344,0.441,1.356,0.441c0.238,0.009,0.472-0.072,0.654-0.226c0.175-0.178,0.284-0.41,0.307-0.658h0.927v4.194h-0.911
		c-0.584-0.883-1.342-1.638-2.227-2.218c-0.744-0.486-1.611-0.752-2.5-0.763c-0.542-0.022-1.08,0.111-1.548,0.384
		c-0.357,0.203-0.579,0.581-0.583,0.991c0,0.601,0.8,1.215,2.407,1.858l0.23,0.1c2.628,1.053,4.285,1.928,4.97,2.624
		c1.427,1.488,1.378,3.852-0.11,5.279c-0.098,0.094-0.2,0.183-0.307,0.265c-1.082,0.815-2.414,1.229-3.767,1.168
		c-0.868-0.015-1.729-0.161-2.553-0.434c-0.498-0.171-1.007-0.309-1.524-0.412c-0.199,0.002-0.391,0.077-0.539,0.21
		c-0.224,0.177-0.414,0.393-0.561,0.637 M1836.635,392.68c0.083-0.611-0.05-1.233-0.376-1.758c-0.496-0.295-1.071-0.431-1.647-0.389
		v-1.147h0.506c1.017,0,1.978-0.044,2.905-0.106c0.906-0.072,1.794-0.169,2.638-0.312v2.45c0.522-0.767,1.217-1.4,2.029-1.848
		c0.789-0.408,1.667-0.614,2.555-0.601c1.686-0.066,3.311,0.632,4.422,1.9c2.249,2.995,2.249,7.116,0,10.111
		c-1.083,1.257-2.677,1.957-4.335,1.906c-0.812,0.009-1.616-0.146-2.366-0.456c-0.747-0.294-1.422-0.745-1.98-1.322v2.5
		c0,0.973,0.152,1.562,0.427,1.784c0.584,0.285,1.231,0.419,1.881,0.389v1.141h-8.682v-1.151c0.575,0.031,1.147-0.104,1.647-0.39
		c0.326-0.534,0.458-1.164,0.376-1.784V392.68z M1840.986,394.293v3.62c-0.041,0.872,0.223,1.731,0.747,2.43
		c0.5,0.6,1.251,0.933,2.031,0.9c0.763,0.02,1.492-0.316,1.974-0.909c0.535-0.69,0.808-1.548,0.771-2.421v-3.62
		c0.064-0.902-0.174-1.801-0.678-2.553c-0.46-0.603-1.192-0.933-1.948-0.878c-0.809-0.027-1.585,0.312-2.114,0.924
		c-0.554,0.712-0.832,1.6-0.783,2.5L1840.986,394.293z M1827.005,392.686c0-0.943-0.107-1.526-0.36-1.761
		c-0.504-0.29-1.083-0.427-1.664-0.393v-1.147h0.557c1.04,0,2.051-0.039,3.026-0.1c0.975-0.062,1.91-0.171,2.815-0.286v10.172
		c-0.075,0.613,0.032,1.234,0.307,1.787c0.384,0.256,0.84,0.38,1.3,0.354v1.177h-8.005v-1.177c0.576,0.041,1.15-0.093,1.648-0.385
		c0.263-0.221,0.376-0.811,0.376-1.758V392.686z"/>
	<path id="Path_102" fill="#E3001B" d="M1983.852,387.804l-3.633,10.241v5.814h-4.601v-5.814l-3.507-10.241h4.564
		c0.518,2.089,0.925,4.203,1.223,6.333c0.285-1.709,0.739-3.825,1.387-6.333H1983.852z M1967.97,387.804v16.056h-4.361
		l-0.014-10.851l-1.726,10.851h-3.054l-1.821-10.591l-0.013,10.591h-4.348v-16.056h6.43c0.179,0.966,0.377,2.118,0.6,3.414
		l0.7,4.074l1.131-7.488H1967.97z M1939.289,387.804h8.3v3.206h-3.32v3.068h3.113v3.035h-3.113v3.53h3.664v3.215h-8.646
		L1939.289,387.804z M1927.63,390.548v10.566c0.709,0,1.133-0.128,1.31-0.362c0.218-0.631,0.298-1.302,0.235-1.967v-6.242
		c0.014-0.472-0.012-0.943-0.076-1.41c-0.045-0.2-0.184-0.367-0.372-0.449C1928.374,390.566,1928.001,390.52,1927.63,390.548
		L1927.63,390.548z M1922.643,387.804h3.726c1.628-0.052,3.257,0.041,4.868,0.278c0.716,0.117,1.384,0.435,1.927,0.915
		c0.419,0.368,0.711,0.857,0.836,1.4c0.141,1.012,0.194,2.034,0.16,3.056v5.622c0.048,0.969-0.032,1.939-0.235,2.888
		c-0.149,0.468-0.449,0.873-0.852,1.154c-0.451,0.292-0.959,0.486-1.489,0.571c-0.883,0.128-1.774,0.186-2.666,0.17h-6.276
		L1922.643,387.804z M1913.028,398.133c-0.247-1.82-0.489-4.07-0.76-6.76c-0.49,3.079-0.795,5.338-0.935,6.76H1913.028z
		 M1915.671,387.804l2.842,16.056h-5.077l-0.287-2.888h-1.779l-0.269,2.888h-5.162l2.526-16.056H1915.671z M1902.023,394.812h-4.979
		v-2.801c0.037-0.511-0.021-1.024-0.172-1.514c-0.107-0.2-0.328-0.3-0.699-0.3c-0.307-0.045-0.609,0.099-0.769,0.364
		c-0.14,0.519-0.192,1.058-0.159,1.595v7.45c-0.033,0.514,0.02,1.029,0.159,1.525c0.157,0.255,0.448,0.394,0.744,0.354
		c0.288,0.039,0.571-0.103,0.71-0.358c0.162-0.548,0.225-1.121,0.186-1.691v-2h4.98v0.623c0.059,1.194-0.084,2.391-0.421,3.538
		c-0.392,0.802-1.046,1.446-1.854,1.825c-1.096,0.559-2.317,0.829-3.547,0.785c-1.234,0.04-2.463-0.188-3.601-0.669
		c-0.843-0.342-1.521-1-1.886-1.833c-0.349-1.145-0.502-2.34-0.452-3.535v-4.693c-0.015-0.869,0.036-1.738,0.149-2.601
		c0.117-0.625,0.408-1.205,0.84-1.673c0.533-0.579,1.203-1.016,1.949-1.268c0.924-0.317,1.896-0.472,2.875-0.456
		c1.243-0.045,2.48,0.202,3.61,0.723c0.825,0.336,1.497,0.966,1.886,1.768c0.354,1.063,0.509,2.182,0.455,3.301L1902.023,394.812z
		 M1880.778,398.133c-0.225-1.82-0.488-4.07-0.748-6.76c-0.492,3.079-0.807,5.338-0.931,6.76H1880.778z M1883.421,387.804
		l2.852,16.056h-5.087l-0.265-2.888h-1.8l-0.265,2.888h-5.145l2.522-16.056H1883.421z"/>
	<path id="Path_103" fill="#1A1718" d="M1827.603,382.15c0.747-0.025,1.48,0.191,2.093,0.618c0.515,0.352,0.825,0.934,0.829,1.557
		c-0.126,0.697-0.537,1.311-1.134,1.691c-0.358,0.27-0.736-1.329-1.148-2.48c-0.221-0.613-0.4-1.131-0.685-1.131
		c-0.85,0-1.435,4.015-2.007,3.608c-0.535-0.399-0.859-1.021-0.882-1.688c0.006-0.628,0.325-1.212,0.851-1.557
		C1826.13,382.343,1826.86,382.125,1827.603,382.15"/>
	<path id="Path_104" fill="#E3001B" d="M1827.861,382.15c0.739-0.022,1.465,0.194,2.071,0.618c0.528,0.342,0.849,0.928,0.851,1.557
		c-0.125,0.7-0.542,1.315-1.147,1.691c-0.365,0.27-0.745-1.329-1.154-2.48c-0.213-0.613-0.4-1.131-0.687-1.131
		c-0.829,0-1.433,4.015-1.984,3.608c-0.539-0.396-0.865-1.02-0.882-1.688c0.004-0.623,0.314-1.205,0.829-1.557
		c0.615-0.426,1.352-0.644,2.1-0.618"/>
	<path id="Path_105" fill="#1A1718" d="M1796.717,380.826c2.947-0.439,5.813-0.9,8.759-1.336
		c8.064,8.417,21.428,20.282,12.586,23.355c-6.768,2.16-15.6,2.7-24.255,3.261c-0.848,0.045-1.662,0.108-2.481,0.147
		c-2.54,0.153-4.939,0.3-7.1,0.456l0,0c2.587-0.396,5.169-0.829,7.747-1.3c5.03-0.958,28.52-5.016,18.85-13.082
		c-4.509-4.207-9.319-7.601-14.1-11.5"/>
	<path id="Path_106" fill="#E3001B" d="M1797.832,380.629c2.943-0.438,5.889-0.878,8.837-1.319
		c8.041,8.418,20.234,20.462,11.392,23.534c-6.768,2.16-14.246,2.7-22.9,3.261c-0.846,0.045-1.661,0.108-2.482,0.147
		c-2.542,0.153-5.306,0.239-7.472,0.392c2.578-0.407,5.537-0.768,8.115-1.239c5.03-0.958,28.521-5.016,18.849-13.082
		c-4.508-4.207-9.563-7.8-14.344-11.693"/>
	<path id="Path_107" fill="#1A1718" d="M1800.73,375.925l8.092,2.494c1.443,15.824-8.313,22.129-17.567,31.554
		c-0.807,0.715-1.6,0.513-0.892-0.427c0.961-1.422,1.985-2.779,2.965-4.14c6.747-9.409,13.379-16.3,7.4-29.48L1800.73,375.925z"/>
	<path id="Path_108" fill="#E3001B" d="M1803.034,384.748l5.646,4.516l0.667-1.876l0.4-2.351l-7.228-3.8L1803.034,384.748z"/>
	<path id="Path_109" fill="#E3001B" d="M1791.184,405.588l3.039-0.695l-1.313,1.301l-2.3,0.127L1791.184,405.588z"/>
	<path id="Path_110" fill="#1A1718" d="M1983.007,437.647c0.027,0.564-0.203,1.11-0.625,1.486c-0.488,0.392-1.104,0.591-1.729,0.559
		c-0.627,0.037-1.242-0.172-1.719-0.581c-0.407-0.363-0.635-0.889-0.619-1.435v-0.291h1.016v0.262
		c-0.02,0.355,0.129,0.699,0.4,0.931c0.255,0.226,0.586,0.347,0.927,0.338c0.377,0.033,0.749-0.099,1.022-0.36
		c0.221-0.218,0.343-0.518,0.338-0.827c-0.02-0.302-0.164-0.581-0.4-0.77c-0.351-0.269-0.74-0.482-1.154-0.635
		c-0.553-0.164-1.064-0.444-1.5-0.822c-0.297-0.272-0.463-0.658-0.457-1.061c-0.023-0.54,0.21-1.059,0.629-1.4
		c0.426-0.354,0.965-0.543,1.519-0.531c0.616-0.053,1.224,0.182,1.644,0.636c0.314,0.392,0.49,0.876,0.5,1.379h-1.01
		c0.033-0.299-0.061-0.597-0.258-0.822c-0.221-0.252-0.545-0.389-0.879-0.371c-0.305-0.018-0.604,0.077-0.842,0.266
		c-0.206,0.18-0.32,0.442-0.311,0.716c-0.006,0.237,0.084,0.468,0.252,0.638c0.367,0.294,0.791,0.51,1.245,0.635
		c0.552,0.2,1.062,0.503,1.5,0.894c0.326,0.302,0.511,0.727,0.512,1.172 M1974.677,436.828c0.048,0.797-0.201,1.583-0.699,2.206
		c-0.414,0.429-0.986,0.667-1.582,0.661c-0.685,0.008-1.338-0.284-1.787-0.8c-0.566-0.731-0.836-1.649-0.758-2.57
		c-0.072-1.01,0.185-2.017,0.733-2.868c0.427-0.604,1.124-0.959,1.864-0.95c0.604-0.015,1.183,0.236,1.586,0.686
		c0.459,0.523,0.677,1.217,0.6,1.909h-0.963c0.035-0.473-0.072-0.944-0.309-1.354c-0.2-0.304-0.548-0.476-0.91-0.451
		c-0.471-0.004-0.904,0.253-1.127,0.668c-0.33,0.712-0.475,1.496-0.418,2.279c-0.06,0.716,0.086,1.434,0.418,2.071
		c0.23,0.371,0.637,0.599,1.074,0.6c0.344-0.01,0.664-0.172,0.875-0.443c0.327-0.483,0.469-1.068,0.4-1.647L1974.677,436.828z
		 M1964.227,439.614h-1.013v-7.029h1.013V439.614z M1957.515,433.374h-1.756v6.236h-1.015v-6.236h-1.751v-0.79h4.521V433.374z
		 M1949.13,437.647c0.023,0.568-0.215,1.116-0.648,1.486c-0.484,0.396-1.1,0.595-1.725,0.559c-0.625,0.038-1.238-0.171-1.709-0.581
		c-0.402-0.367-0.625-0.891-0.611-1.435v-0.291h1v0.262c-0.021,0.354,0.123,0.698,0.391,0.931c0.26,0.22,0.588,0.34,0.928,0.338
		c0.378,0.037,0.752-0.095,1.023-0.36c0.219-0.219,0.34-0.518,0.335-0.827c-0.019-0.302-0.163-0.582-0.399-0.77
		c-0.34-0.273-0.723-0.488-1.134-0.635c-0.562-0.16-1.081-0.44-1.522-0.822c-0.295-0.272-0.461-0.658-0.455-1.061
		c-0.014-0.54,0.221-1.056,0.636-1.4c0.423-0.354,0.961-0.543,1.513-0.531c0.617-0.056,1.224,0.179,1.643,0.636
		c0.326,0.386,0.506,0.873,0.508,1.379h-1.016c0.037-0.299-0.057-0.599-0.258-0.822c-0.22-0.251-0.543-0.388-0.876-0.371
		c-0.301-0.016-0.597,0.079-0.833,0.266c-0.199,0.184-0.309,0.445-0.3,0.716c-0.007,0.233,0.075,0.462,0.229,0.638
		c0.37,0.29,0.793,0.506,1.244,0.635c0.557,0.19,1.068,0.494,1.5,0.894c0.338,0.295,0.533,0.72,0.539,1.169H1949.13z
		 M1938.804,439.611h-1v-7.026h1V439.611z M1932.083,433.374h-1.753v6.236h-0.995v-6.236h-1.752v-0.79h4.5V433.374z
		 M1922.121,436.656l-0.685-2.506h-0.101l-0.7,2.506H1922.121z M1924.011,439.611h-1.05l-0.618-2.175h-1.922l-0.621,2.175h-1.045
		l2.199-7.106h0.88L1924.011,439.611z M1915.145,433.374h-1.752v6.236h-1.017v-6.236h-1.751v-0.79h4.521L1915.145,433.374z
		 M1906.763,437.647c0.021,0.566-0.213,1.113-0.642,1.486c-0.487,0.396-1.106,0.596-1.733,0.559c-0.62,0.034-1.23-0.174-1.699-0.581
		c-0.408-0.363-0.636-0.889-0.621-1.435v-0.291h1.017v0.262c-0.029,0.357,0.12,0.706,0.399,0.931
		c0.25,0.223,0.572,0.343,0.906,0.338c0.383,0.033,0.762-0.098,1.043-0.36c0.206-0.226,0.318-0.521,0.315-0.827
		c-0.008-0.305-0.155-0.588-0.399-0.77c-0.34-0.273-0.724-0.488-1.135-0.635c-0.559-0.157-1.074-0.438-1.509-0.822
		c-0.296-0.273-0.464-0.658-0.468-1.061c-0.016-0.543,0.225-1.062,0.648-1.4c0.416-0.356,0.951-0.546,1.5-0.531
		c0.615-0.057,1.224,0.179,1.641,0.636c0.327,0.385,0.508,0.873,0.51,1.379h-1c0.052-0.605-0.396-1.139-1.002-1.19
		c-0.049-0.004-0.098-0.005-0.146-0.003c-0.297-0.014-0.589,0.081-0.822,0.266c-0.379,0.36-0.412,0.952-0.078,1.354
		c0.378,0.29,0.807,0.506,1.265,0.635c0.548,0.195,1.05,0.499,1.476,0.894c0.34,0.293,0.533,0.72,0.533,1.169H1906.763z
		 M1891.061,438.465c-0.344-0.338-0.666-0.699-0.963-1.08c-0.253-0.303-0.473-0.632-0.654-0.981
		c-0.215,0.136-0.391,0.328-0.506,0.555c-0.114,0.24-0.171,0.503-0.166,0.769c-0.019,0.354,0.129,0.694,0.4,0.921
		c0.269,0.198,0.594,0.304,0.928,0.3c0.181,0.009,0.359-0.032,0.518-0.12c0.161-0.1,0.309-0.222,0.436-0.362H1891.061z
		 M1890.752,433.859c0.013-0.164-0.04-0.326-0.146-0.451c-0.113-0.109-0.265-0.168-0.422-0.162
		c-0.183-0.002-0.357,0.074-0.481,0.209c-0.158,0.146-0.241,0.356-0.224,0.571c0.006,0.201,0.025,0.401,0.061,0.6
		c0.057,0.231,0.141,0.456,0.249,0.668c0.255-0.113,0.479-0.288,0.651-0.508c0.217-0.259,0.326-0.59,0.307-0.927H1890.752z
		 M1892.952,438.789l-0.4,0.821c-0.186-0.115-0.336-0.209-0.477-0.29c-0.141-0.098-0.275-0.206-0.4-0.322
		c-0.229,0.203-0.484,0.374-0.761,0.507c-0.284,0.133-0.595,0.196-0.908,0.187c-0.55,0.014-1.087-0.163-1.522-0.5
		c-0.439-0.376-0.671-0.94-0.623-1.517c-0.019-0.396,0.113-0.784,0.367-1.088c0.26-0.31,0.563-0.579,0.9-0.8
		c-0.15-0.287-0.271-0.589-0.361-0.9c-0.076-0.267-0.114-0.542-0.115-0.818c-0.029-0.431,0.137-0.851,0.453-1.146
		c0.305-0.275,0.701-0.425,1.113-0.419c0.355-0.006,0.701,0.117,0.973,0.346c0.271,0.264,0.414,0.631,0.394,1.008
		c0.022,0.465-0.147,0.919-0.472,1.255c-0.305,0.312-0.648,0.583-1.021,0.809c0.207,0.32,0.418,0.638,0.625,0.914
		c0.225,0.283,0.477,0.583,0.768,0.892c0.088-0.177,0.152-0.364,0.189-0.559c0.014-0.175,0.031-0.412,0.031-0.684h0.878
		c0.009,0.328-0.029,0.656-0.114,0.974c-0.068,0.279-0.174,0.549-0.313,0.8c0.115,0.106,0.237,0.203,0.367,0.29
		c0.135,0.092,0.277,0.173,0.425,0.242L1892.952,438.789z M1878.606,437.647c0.023,0.568-0.215,1.116-0.648,1.486
		c-0.486,0.395-1.101,0.593-1.726,0.559c-0.626,0.038-1.242-0.171-1.717-0.581c-0.396-0.371-0.614-0.893-0.6-1.435v-0.291h0.995
		v0.262c-0.02,0.354,0.125,0.698,0.394,0.931c0.259,0.221,0.589,0.341,0.93,0.338c0.376,0.037,0.75-0.095,1.021-0.36
		c0.22-0.218,0.342-0.518,0.338-0.827c-0.019-0.302-0.164-0.581-0.4-0.77c-0.339-0.273-0.723-0.488-1.133-0.635
		c-0.561-0.161-1.08-0.441-1.522-0.822c-0.295-0.272-0.46-0.659-0.454-1.061c-0.014-0.538,0.216-1.053,0.626-1.4
		c0.427-0.354,0.967-0.542,1.521-0.531c0.616-0.056,1.223,0.18,1.641,0.636c0.327,0.385,0.508,0.873,0.51,1.379h-1.016
		c0.037-0.299-0.057-0.599-0.258-0.822c-0.22-0.251-0.542-0.388-0.876-0.371c-0.302-0.017-0.599,0.078-0.836,0.266
		c-0.199,0.185-0.308,0.445-0.3,0.716c-0.007,0.233,0.075,0.462,0.229,0.638c0.369,0.292,0.792,0.508,1.246,0.635
		c0.557,0.189,1.068,0.494,1.5,0.894c0.333,0.298,0.525,0.722,0.531,1.169H1878.606z M1870.253,436.825
		c0.055,0.799-0.197,1.588-0.706,2.206c-0.408,0.427-0.975,0.666-1.566,0.661c-0.688,0.005-1.343-0.287-1.8-0.801
		c-0.559-0.733-0.822-1.65-0.737-2.569c-0.078-1.008,0.171-2.014,0.711-2.868c0.43-0.602,1.126-0.957,1.865-0.95
		c0.609-0.011,1.194,0.238,1.608,0.686c0.437,0.535,0.65,1.22,0.594,1.908h-0.974c0.035-0.471-0.069-0.941-0.3-1.354
		c-0.208-0.306-0.563-0.478-0.931-0.451c-0.466-0.001-0.895,0.256-1.113,0.668c-0.337,0.71-0.48,1.496-0.417,2.279
		c-0.067,0.716,0.078,1.437,0.417,2.071c0.229,0.373,0.636,0.601,1.074,0.6c0.341-0.017,0.66-0.178,0.876-0.443
		c0.319-0.486,0.458-1.069,0.39-1.647L1870.253,436.825z M1859.805,439.611h-0.994v-7.026h0.994V439.611z M1853.085,433.374h-1.753
		v6.236h-1.014v-6.236h-1.752v-0.79h4.521L1853.085,433.374z M1843.12,436.656l-0.7-2.506h-0.089l-0.692,2.506H1843.12z
		 M1845.013,439.611h-1.05l-0.62-2.175h-1.922l-0.621,2.175h-1.046l2.18-7.106h0.877L1845.013,439.611z M1836.269,439.611h-0.876
		v-5.014h-0.09l-1.048,5.014h-0.706l-1.046-5.014h-0.086v5.014h-0.877v-7.026h1.359l0.96,4.642h0.085l0.962-4.642h1.362
		L1836.269,439.611z M1827.769,439.611h-4.468v-7.026h4.244v0.79h-3.251v2.177h2.994v0.772h-2.994v2.506h3.476L1827.769,439.611z
		 M1819.204,439.611h-1.006v-3.288h-2.507v3.288h-1v-7.026h1v2.967h2.507v-2.967h1.006V439.611z M1810.717,433.374h-1.754v6.236
		h-0.993v-6.236h-1.751v-0.79h4.5L1810.717,433.374z M1800.759,436.656l-0.691-2.506h-0.09l-0.7,2.506H1800.759z M1802.644,439.611
		h-1.048l-0.62-2.175h-1.922l-0.621,2.175h-1.048l2.2-7.106h0.877L1802.644,439.611z M1793.918,439.611h-0.877v-5.014h-0.086
		l-1.068,5.014h-0.688l-1.064-5.014h-0.085v5.014h-0.877v-7.026h1.359l0.96,4.642h0.1l0.972-4.642h1.356L1793.918,439.611z"/>
</g>
</svg>
